<?xml version="1.0" standalone="no"?>
<!DOCTYPE svg PUBLIC "-//W3C//DTD SVG 20010904//EN"
 "http://www.w3.org/TR/2001/REC-SVG-20010904/DTD/svg10.dtd">
<svg version="1.0" xmlns="http://www.w3.org/2000/svg"
 width="300.000000pt" height="228.000000pt" viewBox="0 0 300.000000 228.000000"
 preserveAspectRatio="xMidYMid meet">
<metadata>
Created by potrace 1.10, written by Peter Selinger 2001-2011
</metadata>
<g transform="translate(0.000000,228.000000) scale(0.100000,-0.100000)"
fill="#000000" stroke="none">
<path d="M352 1580 c-116 -25 -248 -124 -272 -207 -23 -75 24 -124 104 -109
26 5 48 24 98 84 42 49 87 90 124 112 55 33 63 35 144 34 59 0 96 -6 122 -18
36 -17 58 -15 58 5 0 5 -4 9 -9 9 -6 0 -30 14 -55 30 -24 17 -64 37 -87 45
-54 20 -171 27 -227 15z m166 -29 c52 -1 37 -18 -23 -26 -30 -3 -57 -11 -60
-16 -4 -5 -16 -9 -28 -9 -13 0 -30 -8 -38 -17 -9 -10 -31 -32 -50 -49 -19 -17
-51 -52 -72 -77 -46 -55 -85 -72 -116 -51 -35 25 -26 67 29 131 21 24 31 28
39 20 9 -9 11 -8 6 4 -5 14 24 44 48 47 4 1 22 9 39 18 18 9 45 17 60 16 15 0
30 4 34 9 3 5 27 7 52 5 26 -3 62 -5 80 -5z"/>
<path d="M955 1576 c-56 -21 -155 -128 -197 -213 -32 -65 -33 -73 -33 -183 0
-109 2 -118 32 -181 42 -85 100 -139 149 -139 l36 0 -50 54 c-78 86 -96 133
-97 246 0 82 4 103 27 152 56 119 196 214 346 234 59 8 62 11 26 25 -48 19
-193 22 -239 5z m190 -7 c11 0 -17 -13 -62 -28 -135 -46 -224 -116 -273 -211
-26 -50 -48 -162 -42 -209 3 -31 2 -33 -13 -21 -13 11 -15 29 -11 105 3 79 8
101 36 156 33 68 93 140 148 178 37 26 110 42 162 35 19 -2 44 -4 55 -5z"/>
<path d="M1140 1509 c-68 -13 -168 -67 -217 -116 -61 -61 -103 -152 -103 -225
0 -90 31 -159 106 -235 72 -73 79 -74 161 -26 46 27 57 49 20 39 -35 -8 -94
12 -133 46 -81 71 -101 189 -47 275 50 81 241 175 386 190 l61 6 -34 29 c-30
24 -42 28 -95 27 -33 -1 -80 -5 -105 -10z m171 -19 l24 -19 -26 -1 c-45 0
-180 -40 -243 -72 -80 -40 -132 -82 -163 -131 -34 -55 -36 -157 -4 -212 30
-51 26 -66 -9 -28 -35 39 -62 122 -53 166 32 162 172 285 348 307 95 12 101
11 126 -10z m-315 -549 c13 -10 21 -21 18 -23 -8 -9 -54 16 -54 30 0 17 8 15
36 -7z"/>
<path d="M570 1457 c0 -2 19 -24 42 -47 39 -38 43 -40 55 -24 18 25 17 31 -10
49 -23 15 -87 32 -87 22z"/>
<path d="M453 1424 c-28 -14 -57 -31 -63 -39 -11 -13 -7 -15 24 -15 72 0 151
-50 176 -111 18 -42 27 -36 34 22 7 48 5 54 -21 81 -15 17 -44 43 -63 58 l-36
28 -51 -24z m91 -49 c21 -19 42 -35 47 -35 5 0 9 -4 9 -10 0 -16 -18 -11 -32
8 -7 11 -24 25 -38 33 -25 13 -31 15 -51 18 -14 1 -1 21 15 21 7 0 30 -16 50
-35z"/>
<path d="M713 1403 c-49 -81 -65 -133 -71 -230 -4 -85 -3 -96 22 -145 30 -61
72 -115 82 -106 3 4 -6 31 -20 61 -57 116 -52 298 13 425 29 57 10 53 -26 -5z"/>
<path d="M1470 1431 c0 -6 7 -11 15 -11 24 0 18 -21 -17 -57 l-32 -33 35 0
c25 0 30 3 19 10 -11 7 -4 10 28 10 44 0 52 9 27 30 -8 7 -15 17 -15 23 0 7
12 -1 27 -16 26 -26 27 -27 8 -41 -17 -13 -15 -14 34 -17 29 -2 58 -1 64 3 8
5 6 8 -5 8 -9 0 -34 20 -55 44 -31 35 -46 44 -85 50 -32 5 -48 4 -48 -3z"/>
<path d="M1690 1431 c0 -6 9 -11 20 -11 19 0 40 -27 40 -50 0 -6 -14 -17 -31
-24 -42 -18 -26 -25 36 -17 41 6 46 8 28 15 -13 4 -23 14 -23 22 0 20 10 18
38 -8 23 -22 24 -22 37 -4 8 10 16 24 18 30 3 8 8 8 16 0 15 -14 4 -44 -18
-45 -9 -1 16 -5 54 -9 71 -8 116 0 60 10 -27 5 -30 9 -30 40 0 29 4 36 23 38
12 2 22 7 22 11 0 13 -105 0 -122 -16 -16 -14 -20 -14 -40 -1 -30 20 -128 34
-128 19z"/>
<path d="M2030 1429 c0 -4 9 -9 21 -12 16 -4 20 -12 17 -38 -2 -26 -9 -35 -28
-39 -45 -11 -6 -16 65 -10 39 4 60 8 48 8 -13 1 -23 9 -23 17 0 11 12 15 49
15 56 0 85 21 60 45 -15 14 -209 28 -209 14z m143 -15 c11 -11 -5 -34 -24 -34
-12 0 -19 7 -19 20 0 19 28 28 43 14z"/>
<path d="M2290 1428 c0 -5 5 -8 10 -8 6 0 10 -16 8 -36 -3 -43 11 -54 74 -54
52 0 72 19 61 58 -3 15 0 24 11 28 28 11 17 24 -19 24 -19 0 -35 -4 -35 -10 0
-5 5 -10 11 -10 6 0 9 -16 7 -37 -2 -30 -7 -38 -23 -38 -15 0 -21 8 -23 29 -2
16 1 33 7 39 19 19 13 22 -39 22 -27 0 -50 -3 -50 -7z"/>
<path d="M2605 1431 c2 -5 15 -11 27 -14 13 -2 31 -8 41 -12 12 -5 17 -2 17
10 0 11 -5 15 -14 12 -8 -3 -29 -2 -46 3 -17 5 -28 5 -25 1z"/>
<path d="M2540 1420 c-8 -5 -15 -26 -17 -47 l-2 -39 72 -2 c78 -2 101 6 95 33
-3 18 -72 45 -96 37 -6 -2 -12 3 -12 12 0 18 -17 21 -40 6z m62 -43 c59 -16
68 -24 34 -33 -37 -9 -89 7 -92 29 -3 20 -3 20 58 4z"/>
<path d="M1225 1410 c-11 -5 -35 -14 -52 -20 -37 -14 -44 -30 -13 -30 27 0 70
-22 93 -48 31 -34 71 -46 111 -32 20 6 43 21 51 33 20 28 19 71 -2 88 -18 16
-155 22 -188 9z m167 -21 c46 -25 0 -89 -63 -89 -21 0 -41 5 -45 11 -3 6 -27
24 -52 40 -49 31 -47 33 28 48 48 10 103 6 132 -10z"/>
<path d="M1895 1252 c-6 -4 -23 -26 -38 -50 l-28 -43 28 -45 c15 -24 32 -44
36 -44 17 0 18 31 3 55 -21 33 -20 42 9 81 14 18 25 37 25 43 0 13 -20 14 -35
3z"/>
<path d="M2028 1243 c-16 -20 -118 -173 -118 -179 0 -2 9 -4 20 -4 14 0 38 27
80 91 33 50 60 95 60 100 0 15 -26 10 -42 -8z"/>
<path d="M2083 1233 c-4 -9 1 -30 11 -47 17 -29 17 -30 -13 -73 -36 -51 -37
-53 -11 -53 19 0 80 76 80 100 0 11 -50 90 -57 90 -2 0 -7 -8 -10 -17z"/>
<path d="M589 1063 c-14 -38 -35 -60 -94 -97 -88 -57 -203 -99 -282 -104 -40
-2 -73 -9 -73 -13 0 -5 15 -18 32 -29 93 -57 319 4 428 115 40 41 43 46 32 70
-7 14 -12 37 -12 50 0 35 -18 40 -31 8z m-44 -130 c-67 -50 -155 -86 -155 -64
0 10 21 16 43 12 4 0 7 3 7 9 0 6 6 10 13 10 6 0 32 13 57 30 44 29 73 32 35
3z"/>
<path d="M1304 1047 c-12 -7 -40 -34 -61 -62 -87 -110 -178 -165 -274 -165
-68 0 -138 20 -190 54 -44 30 -49 31 -49 14 1 -22 107 -99 172 -125 123 -50
286 -39 388 27 96 62 162 157 145 210 -15 49 -85 74 -131 47z m87 -34 c6 -6
13 -26 15 -44 3 -27 -3 -38 -49 -83 -93 -89 -214 -136 -313 -121 -55 8 -57 21
-4 30 22 4 40 11 40 16 0 4 7 5 17 2 11 -4 14 -3 9 5 -4 7 -1 12 6 12 8 0 31
15 51 34 20 18 37 32 37 29 0 -2 21 22 46 54 26 32 53 63 61 69 17 14 69 12
84 -3z"/>
<path d="M106 1014 c-18 -18 -26 -37 -26 -61 0 -41 28 -55 110 -57 55 -1 180
30 180 45 0 4 -14 10 -31 14 -17 4 -45 19 -62 34 -69 60 -127 68 -171 25z
m112 -33 c7 -9 14 -14 16 -11 1 3 10 -2 19 -11 23 -23 12 -29 -54 -29 -50 0
-60 3 -70 22 -10 18 -8 24 11 40 25 21 57 16 78 -11z"/>
<path d="M1470 957 c-14 -7 -26 -23 -28 -35 -3 -18 4 -26 32 -37 19 -8 47 -15
61 -15 14 0 42 7 61 15 67 28 26 85 -61 85 -22 0 -51 -6 -65 -13z m88 -25 c6
-44 -37 -65 -52 -26 -9 22 13 56 32 52 9 -2 18 -14 20 -26z"/>
<path d="M1693 954 c15 -8 27 -23 27 -35 0 -12 -11 -24 -27 -31 l-28 -12 33
-4 c18 -2 45 -1 60 1 26 4 26 5 5 12 -30 10 -36 33 -12 46 16 8 24 8 33 -1 8
-8 7 -10 -6 -5 -33 13 -19 -3 26 -29 60 -35 70 -34 62 8 -6 29 -3 37 16 50 22
16 21 16 -22 16 -40 0 -42 -1 -24 -14 10 -8 16 -17 12 -21 -4 -4 -19 2 -34 14
-21 16 -40 21 -88 21 -60 -1 -60 -1 -33 -16z"/>
<path d="M1952 959 c14 -6 29 -17 32 -26 7 -18 -10 -43 -30 -43 -8 0 -14 -4
-14 -10 0 -5 24 -10 53 -9 50 0 51 1 30 16 -24 16 -31 43 -12 43 5 0 7 5 3 11
-3 6 8 3 25 -5 35 -19 43 -33 9 -16 -23 11 -23 11 1 -9 26 -23 46 -28 35 -8
-4 7 -3 9 2 4 5 -5 9 -14 9 -20 0 -7 8 -13 18 -15 14 -3 17 4 17 36 0 31 5 41
23 50 20 9 17 11 -21 11 -40 1 -42 0 -27 -15 25 -26 8 -30 -25 -6 -23 17 -42
22 -92 21 -53 0 -59 -2 -36 -10z"/>
<path d="M2218 963 c18 -4 22 -11 22 -38 0 -22 -6 -37 -17 -44 -12 -6 13 -9
77 -8 70 2 94 5 98 16 4 11 -1 12 -19 6 -13 -4 -35 -8 -49 -9 -22 -1 -25 3
-25 34 0 31 3 35 25 34 14 0 34 -3 44 -5 10 -2 21 2 23 9 4 9 -20 12 -99 11
-56 -1 -93 -4 -80 -6z"/>
<path d="M2475 961 c-67 -28 -41 -80 42 -88 30 -3 58 -1 69 6 16 10 13 11 -20
7 -46 -6 -66 6 -66 41 0 31 24 39 55 19 31 -20 35 -20 35 2 0 16 -8 19 -47 20
-27 0 -57 -3 -68 -7z"/>
<path d="M2640 948 c0 -20 1 -20 18 -5 23 21 32 13 32 -25 0 -20 -6 -31 -22
-37 -15 -5 -1 -8 47 -9 51 -1 65 2 53 9 -12 7 -18 22 -18 46 0 34 1 35 18 20
24 -22 32 -21 32 3 0 18 -7 20 -80 20 -75 0 -80 -1 -80 -22z"/>
<path d="M612 900 c-42 -49 -153 -107 -239 -125 -38 -8 -72 -15 -78 -15 -6 0
-6 -3 0 -9 18 -18 142 -28 211 -18 63 9 70 13 133 72 l66 63 -19 36 c-11 20
-24 36 -30 35 -6 0 -26 -18 -44 -39z m13 -56 c-67 -57 -76 -64 -87 -64 -6 0
-2 9 10 20 12 11 24 20 28 20 3 0 19 11 36 25 16 14 33 25 36 25 4 0 -6 -12
-23 -26z"/>
</g>
</svg>
